<svg xmlns="http://www.w3.org/2000/svg" width="1200" height="675" viewBox="0 0 1200 675">
  <defs>
    <linearGradient id="bg" x1="0" y1="0" x2="1" y2="1">
      <stop offset="0" stop-color="#120b27"/>
      <stop offset="1" stop-color="#020617"/>
    </linearGradient>
    <radialGradient id="glow1" cx="0.5" cy="0.5" r="0.5">
      <stop offset="0" stop-color="#f472b6" stop-opacity="0.32"/>
      <stop offset="1" stop-color="#f472b6" stop-opacity="0"/>
    </radialGradient>
    <radialGradient id="glow2" cx="0.5" cy="0.5" r="0.5">
      <stop offset="0" stop-color="#db2777" stop-opacity="0.28"/>
      <stop offset="1" stop-color="#db2777" stop-opacity="0"/>
    </radialGradient>
    <linearGradient id="mono" x1="0" y1="0" x2="1" y2="1">
      <stop offset="0" stop-color="#f472b6"/>
      <stop offset="1" stop-color="#db2777"/>
    </linearGradient>
    <pattern id="grid" width="48" height="48" patternUnits="userSpaceOnUse">
      <path d="M 48 0 L 0 0 0 48" fill="none" stroke="#ffffff" stroke-opacity="0.045" stroke-width="1"/>
    </pattern>
  </defs>
  <rect width="1200" height="675" fill="url(#bg)"/>
  <rect width="1200" height="675" fill="url(#grid)"/>
  <circle cx="1116" cy="204" r="360" fill="url(#glow1)"/>
  <circle cx="516" cy="564" r="320" fill="url(#glow2)"/>
  <g transform="rotate(-7 600 300)">
    <rect x="410" y="150" width="380" height="300" rx="44" fill="#ffffff" fill-opacity="0.035" stroke="#f472b6" stroke-opacity="0.4" stroke-width="2.5"/>
    <text x="600" y="335" text-anchor="middle" font-family="'Segoe UI',Arial,sans-serif" font-size="88" font-weight="900" fill="url(#mono)">MERN</text>
  </g>
  <rect x="90" y="430" width="236" height="10" rx="5" fill="#f472b6" fill-opacity="0.28"/>
  <rect x="90" y="464" width="153" height="10" rx="5" fill="#f472b6" fill-opacity="0.2"/>
  <rect x="90" y="498" width="250" height="10" rx="5" fill="#f472b6" fill-opacity="0.12000000000000002"/>
  <circle cx="1080" cy="120" r="8" fill="#f472b6" fill-opacity="0.7"/>
  <circle cx="1030" cy="120" r="8" fill="#db2777" fill-opacity="0.5"/>
  <circle cx="980" cy="120" r="8" fill="#ffffff" fill-opacity="0.2"/>
</svg>
